<svg width="730" height="520" viewBox="0 0 730 520" xmlns="http://www.w3.org/2000/svg" xmlns:xlink="http://www.w3.org/1999/xlink"><title>Artboard 2</title><defs><path d="M49.5 0H12C5.4 0 0 5.424 0 12.052v39.17c0 .83.477 1.027 1.062.44L15 37.666h24c6.6 0 12-5.424 12-12.052V1.508C51 .678 50.325 0 49.5 0" id="a"/><path d="M50.273.046H12.93C6.357.046.98 5.382.98 11.903v38.54c0 .814.476 1.007 1.058.43l13.878-13.77h23.902c6.572 0 11.95-5.336 11.95-11.858V1.53c0-.817-.672-1.484-1.495-1.484" id="b"/><path d="M35.362.614H8.878C4.218.614.404 4.398.404 9.024v27.33c0 .578.337.715.75.307l9.843-9.766h16.95c4.66 0 8.475-3.784 8.475-8.41V1.667c0-.58-.476-1.052-1.06-1.052" id="c"/><path d="M48.372.118h-35.96C6.086.118.908 5.258.908 11.536v37.11c0 .785.458.97 1.018.416l13.364-13.26h23.014c6.33 0 11.508-5.14 11.508-11.418V1.547c0-.787-.647-1.43-1.44-1.43" id="d"/></defs><g fill="none" fill-rule="evenodd"><path d="M375.58 257.94v-70.03l-60.65 35.015 60.65 35.016zm-60.65-35.015v-70.03l-60.648 35.015 60.65 35.015zm0-70.03v70.03l60.65-35.015-60.65-35.016zm60.65 175.078V257.94l-60.65 35.017 60.65 35.016zm-60.65-35.016v-70.032l-60.648 35.016 60.65 35.017zm0-70.032v70.032l60.65-35.016-60.65-35.015zm-60.648-35.015v70.03l60.65-35.015-60.65-35.015zm0 70.03v-70.03l-60.65 35.015 60.65 35.016zm-60.65-35.015v-70.03l-60.65 35.015 60.65 35.015zm0-70.03v70.03l60.65-35.015-60.65-35.016zm121.3 210.094v-70.033l-60.65 35.016 60.65 35.016zm-60.65-35.017V257.94l-60.65 35.017 60.65 35.016zm0-70.032v70.033l60.65-35.016-60.65-35.016zm60.65 35.017v70.032l60.65-35.017-60.65-35.016zm-121.3-70.032v70.032l60.65-35.016-60.65-35.015zm0 70.032v-70.032l-60.65 35.016 60.65 35.017zm-60.65-105.047v70.03l60.65-35.015-60.65-35.015zm121.3 210.095v-70.032l-60.65 35.016 60.65 35.015zm0-70.032v70.032l60.65-35.016-60.65-35.017zm-60.65-35.016v70.032l60.65-35.017-60.65-35.016zm0 70.032v-70.033l-60.65 35.016 60.65 35.016zm-60.65-105.05v70.033l60.65-35.016-60.65-35.016z" stroke="#FFF" stroke-width=".682" opacity=".7"/><path d="M304.823 362.99c0 5.582 4.526 10.107 10.108 10.107 5.584 0 10.11-4.525 10.11-10.108s-4.526-10.11-10.11-10.11c-5.58 0-10.107 4.527-10.107 10.11M244.174 328.113c0 5.583 4.525 10.108 10.108 10.108s10.108-4.524 10.108-10.107c0-5.583-4.525-10.108-10.108-10.108s-10.108 4.525-10.108 10.108" fill="#E1F7F5"/><path d="M304.823 292.957c0 5.583 4.526 10.108 10.108 10.108 5.584 0 10.11-4.525 10.11-10.108 0-5.582-4.526-10.108-10.11-10.108-5.58 0-10.107 4.525-10.107 10.107" fill="#87DED4"/><path d="M183.523 292.957c0 5.583 4.527 10.108 10.11 10.108 5.583 0 10.108-4.525 10.108-10.108 0-5.582-4.524-10.108-10.107-10.108-5.583 0-10.11 4.525-10.11 10.107M244.174 257.654c0 5.583 4.525 10.108 10.108 10.108s10.108-4.525 10.108-10.108-4.525-10.108-10.108-10.108-10.108 4.525-10.108 10.108M183.523 222.925c0 5.583 4.527 10.108 10.11 10.108 5.583 0 10.108-4.525 10.108-10.108 0-5.582-4.524-10.107-10.107-10.107-5.583 0-10.11 4.525-10.11 10.107" fill="#E1F7F5"/><path d="M589.118 249.44v61.536l-53.293-30.768 53.293-30.77zm-53.293 30.768v61.537l-53.293-30.77 53.293-30.767zm0 61.537v-61.537l53.293 30.768-53.293 30.77zM589.118 187.9v61.54l-53.293-30.77 53.293-30.77zm-53.293 30.77v61.538l-53.293-30.77 53.293-30.768zm0 61.538V218.67l53.293 30.77-53.293 30.768zm-53.293 30.768V249.44l53.293 30.768-53.293 30.768zm0-61.537v61.536l-53.293-30.768 53.292-30.77zm-53.293 30.768v61.537l-53.295-30.77 53.294-30.767zm0 61.537v-61.537l53.292 30.768-53.293 30.77zm106.585-184.613v61.538l-53.293-30.77 53.293-30.768zm-53.293 30.77v61.537l-53.293-30.77 53.292-30.77zm0 61.537V187.9l53.293 30.77-53.293 30.77zm53.293-30.77v-61.538l53.293 30.77-53.293 30.768zM429.24 280.208V218.67l53.292 30.77-53.293 30.768zm0-61.538v61.538l-53.295-30.77 53.294-30.768zm-53.295 92.306V249.44l53.294 30.768-53.295 30.768zm106.587-184.612V187.9l-53.293-30.768 53.292-30.768zm0 61.537v-61.536l53.293 30.768-53.293 30.77zm-53.293 30.77v-61.538l53.292 30.77-53.293 30.768zm0-61.538v61.538l-53.295-30.77 53.294-30.768zm-53.295 92.307V187.9l53.294 30.77-53.295 30.77z" stroke="#FFF" stroke-width=".682" opacity=".7"/><path d="M473.65 126.364c0-4.906 3.977-8.884 8.882-8.884 4.906 0 8.882 3.978 8.882 8.884 0 4.905-3.976 8.882-8.882 8.882-4.905 0-8.882-3.977-8.882-8.882M526.692 338.118c0-4.906 3.978-8.882 8.883-8.882 4.906 0 8.882 3.976 8.882 8.882S540.48 347 535.575 347c-4.905 0-8.883-3.976-8.883-8.882M526.943 218.67c0-4.906 3.977-8.882 8.882-8.882 4.906 0 8.882 3.976 8.882 8.882s-3.976 8.882-8.882 8.882c-4.905 0-8.882-3.976-8.882-8.882M420.356 218.67c0-4.906 3.978-8.882 8.883-8.882 4.905 0 8.88 3.976 8.88 8.882s-3.975 8.882-8.88 8.882c-4.906 0-8.884-3.976-8.884-8.882M473.65 249.69c0-4.904 3.977-8.88 8.882-8.88 4.906 0 8.882 3.976 8.882 8.88 0 4.907-3.976 8.883-8.882 8.883-4.905 0-8.882-3.976-8.882-8.882" fill="#E1F7F5"/><path d="M358.93 492.52c-3.237 0-5.86-2.62-5.86-5.85 0-3.233 2.623-5.853 5.86-5.853 3.234 0 5.856 2.62 5.856 5.852 0 3.23-2.622 5.85-5.857 5.85zm50.277-144.236l-26.032-.01-24.242 117.844-24.247-117.838-26.032-.005-2.96.01s-12.243 0-12.243 15.133l-19.824 99.568 19.825 29.154h130.957l20.814-29.525-20.814-99.197c0-15.134-12.24-15.134-12.24-15.134h-2.96z" fill="#DD5425"/><path d="M382.296 286.828c-.758 0-1.36-.62-1.36-1.365 0-2.31-1.892-4.193-4.19-4.193-2.313 0-4.19 1.883-4.19 4.193 0 .745-.616 1.365-1.37 1.365-.754 0-1.372-.62-1.372-1.365 0-3.816 3.107-6.924 6.93-6.924 3.82 0 6.927 3.107 6.927 6.923 0 .745-.608 1.365-1.374 1.365zM381.418 269c-7.4 0-13.418 6.013-13.418 13.404 0 7.392 6.02 13.405 13.418 13.405s13.418-6.014 13.418-13.406c0-7.39-6.02-13.404-13.418-13.404zM349.02 285.463c0 .745-.604 1.365-1.37 1.365-.762 0-1.363-.62-1.363-1.365 0-2.31-1.89-4.193-4.192-4.193-2.312 0-4.188 1.883-4.188 4.193 0 .745-.618 1.365-1.372 1.365-.754 0-1.37-.62-1.37-1.365 0-3.816 3.106-6.924 6.93-6.924 3.82 0 6.926 3.107 6.926 6.923zM337.415 269C330.02 269 324 275.013 324 282.404c0 7.392 6.02 13.405 13.414 13.405 7.398 0 13.417-6.014 13.417-13.406 0-7.39-6.018-13.404-13.416-13.404zM353.305 278.146c3.46-1.995 7.676-2.01 11.21-.21 1.044-3.63 3.277-6.75 6.23-8.936H347c3.02 2.23 5.29 5.42 6.305 9.146" fill="#EEC5A4"/><path d="M359.312 309.667c4.508 0 7.432-1.94 9.317-5.13-3.216-1.263-4.42-3.825-7.495-4.537l-1.823 1.59-1.826-1.59c-3.074.712-4.27 3.274-7.486 4.536 1.88 3.19 4.8 5.13 9.312 5.13" fill="#D8262C"/><path d="M375.93 278c-3.823 0-6.93 3.108-6.93 6.924 0 .745.617 1.365 1.37 1.365.755 0 1.372-.62 1.372-1.366 0-2.31 1.877-4.193 4.19-4.193 2.298 0 4.19 1.884 4.19 4.194 0 .745.6 1.365 1.36 1.365.766 0 1.375-.62 1.375-1.366 0-3.816-3.107-6.924-6.926-6.924" fill="#161112"/><g fill="#161112"><path d="M335.522 285.31c0 .746.617 1.367 1.37 1.367.755 0 1.372-.62 1.372-1.366 0-2.308 1.877-4.19 4.188-4.19 2.303 0 4.192 1.882 4.192 4.19 0 .746.6 1.367 1.363 1.367.767 0 1.372-.62 1.372-1.366 0-3.814-3.108-6.922-6.928-6.922-3.823 0-6.93 3.108-6.93 6.923"/><path d="M410.564 292c.207-5.604-.128-9.524-.128-9.524-.46-24.43-6.74-41.11-13.84-51.544-8.542-15.312-25.93-23.85-46.352-19.566-2.324.28-8.015 2.152-11.044 7.105-10.95-3.463-29.288 17.56-36.57 61.424 0 0-3.09 13.367.306 26.842 3.973 27.707 28.112 32.847 28.112 32.847-2.018-1.904-3.716-4.677-5.1-7.56 3.94 1.344 10.725 2.896 21.206 3.36v-12.87c-13.27-4.86-23.04-17.45-24.275-32.59-1.2-2.315-1.936-4.893-1.936-7.67 0-1.084.12-2.144.32-3.17 1.49-7.76 8.317-13.645 16.507-13.645 3.71 0 7.106 1.234 9.873 3.278h23.745c2.77-2.044 6.172-3.278 9.88-3.278 8.194 0 15.017 5.885 16.508 13.645.2 1.026.323 2.086.323 3.17 0 2.777-.742 5.355-1.94 7.664-1.234 15.147-11.006 27.736-24.275 32.595v12.005c9.04-1.047 15.166-2.74 19.143-4.262-1.438 3.67-3.368 7.068-5.94 9.08 0 0 23.7-2.45 24.88-39.684.058-.496.116-.992.165-1.485 2.35.965 4.893 1.498 7.565 1.296 0 0-5.352-1.303-7.134-7.46"/></g><path d="M381.324 296.22c-7.4 0-13.418-6.014-13.418-13.406 0-7.39 6.02-13.404 13.418-13.404 7.4 0 13.418 6.013 13.418 13.404 0 7.392-6.02 13.405-13.418 13.405zm-43.497 0c-7.394 0-13.414-6.014-13.414-13.406 0-7.39 6.02-13.404 13.414-13.404 7.4 0 13.418 6.013 13.418 13.404 0 7.392-6.02 13.405-13.418 13.405zm60.005-16.576c-1.49-7.76-8.314-13.644-16.508-13.644-3.708 0-7.11 1.233-9.88 3.278-2.954 2.185-5.186 5.305-6.23 8.935-3.534-1.8-7.75-1.784-11.21.21-1.015-3.724-3.285-6.915-6.305-9.145-2.768-2.045-6.165-3.278-9.873-3.278-8.19 0-15.017 5.885-16.508 13.644-.2 1.027-.32 2.086-.32 3.17 0 2.777.737 5.356 1.935 7.67 2.804 5.404 8.392 9.145 14.892 9.145 9.284 0 16.83-7.54 16.83-16.816 0-.144-.036-.285-.04-.43 2.85-2.413 6.96-2.537 9.963-.418-.017.29-.087.56-.087.848 0 9.275 7.552 16.815 16.83 16.815 6.505 0 12.093-3.742 14.894-9.15 1.197-2.31 1.938-4.89 1.938-7.666 0-1.084-.124-2.143-.323-3.17z" fill="#161112"/><path fill="#FFFFFE" d="M335 348l24.246 117.838L383.486 348l-24.244 46.77L335 348"/><path d="M357.814 300.186l1.827 1.59 1.824-1.59c3.074.71 4.28 3.273 7.494 4.535-1.885 3.192-4.81 5.133-9.317 5.133-4.51 0-7.43-1.94-9.31-5.132 3.213-1.26 4.41-3.823 7.484-4.534zm14.193 22.418c13.268-4.86 23.04-17.448 24.275-32.595-2.8 5.408-8.39 9.15-14.893 9.15-9.28 0-16.832-7.54-16.832-16.815 0-.29.07-.56.087-.85-3.003-2.117-7.113-1.993-9.963.42.004.144.042.285.042.43 0 9.274-7.548 16.814-16.83 16.814-6.5 0-12.09-3.742-14.894-9.147 1.234 15.143 11.007 27.732 24.275 32.59v25.66H335.4v.003l24.24 46.77 24.243-46.77.004-.004h-11.88v-25.658zM431.315 453.77c1.448-1.488 3.83-1.52 5.318-.073l.073.074 12.718 13.075c2.146 2.206 2.146 5.718 0 7.924l-4.482 4.606H431l.315-25.605zM286.963 453.77c-1.448-1.488-3.83-1.52-5.317-.073l-.074.074-12.718 13.075c-2.145 2.206-2.145 5.718 0 7.924l4.482 4.606h13.942l-.315-25.605z" fill="#EEC5A4"/><path d="M273 471h167.018v2.263c0 3.138-2.544 5.682-5.682 5.682H278.682c-3.138 0-5.682-2.544-5.682-5.682V471z" fill="#BDBDBD"/><g transform="translate(108 479)"><rect fill="#7AA29B" y=".006" width="503" height="17.458" rx="8.729"/><path d="M8.73.006h485.54c4.822 0 8.73 3.908 8.73 8.73H0C0 3.913 3.908.005 8.73.005z" fill="#97C4BD"/><path fill="#5A7672" d="M34.76 17.464h434.502v24.01H34.76z"/></g><g transform="translate(282 377)"><rect fill="#D8D8D8" width="149.976" height="102.154" rx="6.819"/><rect fill="#FFF" x="57.945" y="40.862" width="34.085" height="20.431" rx="10.215"/><path d="M6.817 0l143.16 95.344c0 3.76-3.05 6.81-6.812 6.81H6.82c-3.767 0-6.82-3.052-6.82-6.818V6.816C0 3.053 3.052 0 6.817 0z" fill="#000" opacity=".12"/></g><g><path d="M521.943 477.647c0 .747-.595 1.353-1.33 1.353h-30.57c-.734 0-1.328-.606-1.328-1.353v-31.144c0-.747.594-1.354 1.33-1.354h30.57c.733 0 1.328.606 1.328 1.353v31.144" fill="#B44644"/><path d="M524.573 475.71c0 .866-.69 1.568-1.54 1.568h-35.41c-.85 0-1.538-.702-1.538-1.568v-36.073c0-.866.69-1.568 1.54-1.568h35.408c.85 0 1.54.7 1.54 1.567v36.073" fill="#DD5651"/><path d="M524.177 463.316h4.465c1.3 0 2.358-1.002 2.358-2.234v-11.776c0-1.233-1.058-2.235-2.358-2.235h-4.465v3.446h3.442v9.356h-3.443v3.444" fill="#DD5651"/></g><g transform="translate(226 227)"><use fill="#726ACC" transform="matrix(-1 0 0 1 51 0)" xlink:href="#a"/></g><g transform="matrix(-1 0 0 1 496 304)"><use fill="#DC1928" transform="matrix(-1 0 0 1 52.748 0)" xlink:href="#b"/></g><g transform="matrix(-1 0 0 1 622 226)"><use fill="#E1F2EF" transform="matrix(-1 0 0 1 36.827 0)" xlink:href="#c"/></g><g transform="translate(108 179)"><use fill="#E1F2EF" transform="matrix(-1 0 0 1 50.72 0)" xlink:href="#d"/></g><g fill="#FFF"><path d="M469.296 324.532l-2.815 1.484.54-3.144-2.278-2.227 3.146-.46 1.408-2.86 1.406 2.86 3.147.46-2.278 2.227.537 3.144-2.814-1.484M479.976 324.532l-2.815 1.484.54-3.144-2.278-2.227 3.146-.46 1.408-2.86 1.407 2.86 3.146.46-2.278 2.227.538 3.144-2.814-1.484M458.615 324.532l-2.814 1.484.538-3.144-2.277-2.227 3.148-.46 1.407-2.86 1.407 2.86 3.146.46-2.277 2.227.54 3.144-2.815-1.484"/></g><g fill="#FFF"><path d="M242.824 246.066c0 1.69-1.3 3.06-2.905 3.06-1.606 0-2.907-1.37-2.907-3.06s1.3-3.062 2.906-3.062c1.604 0 2.904 1.37 2.904 3.062M253.672 246.066c0 1.69-1.302 3.06-2.906 3.06-1.605 0-2.905-1.37-2.905-3.06s1.3-3.062 2.906-3.062c1.604 0 2.906 1.37 2.906 3.062M264.52 246.066c0 1.69-1.302 3.06-2.906 3.06-1.606 0-2.905-1.37-2.905-3.06s1.298-3.062 2.904-3.062c1.604 0 2.906 1.37 2.906 3.062"/></g><g fill="#00325A"><path d="M221.778 474.64c0 2.456-1.982 4.447-4.426 4.447h-40.64c-2.444 0-4.425-1.99-4.425-4.446 0-2.454 1.98-4.445 4.426-4.445h40.64c2.443 0 4.425 1.99 4.425 4.446M249.198 405.798l-38.94 22.585c-6.208-10.802-2.524-24.615 8.23-30.85 10.752-6.237 24.502-2.537 30.71 8.265"/><path d="M227.16 396.34c2.238 3.894.91 8.873-2.967 11.12-3.876 2.25-8.832.915-11.07-2.98l-8.104-14.1c-2.24-3.894-.91-8.873 2.965-11.12 3.876-2.25 8.833-.915 11.07 2.98l8.105 14.1"/><path d="M194.848 474.92l-29.388-59.847 45.885-28.47 3.228 5.25-41.134 25.522 26.916 54.817-5.508 2.73"/></g></g></svg>